<svg width="20" height="20" viewBox="0 0 20 20" fill="none" xmlns="http://www.w3.org/2000/svg">
<path d="M6.85711 4.62496C7.43524 0.73571 13.0339 0.752281 13.7143 4.62496M17.4183 6.3396L18.8334 15.4385C18.8781 15.7265 18.8595 16.0206 18.7786 16.3008C18.6978 16.581 18.5568 16.8406 18.3651 17.0618C18.1735 17.283 17.9358 17.4606 17.6684 17.5825C17.4009 17.7043 17.11 17.7676 16.8156 17.7678H3.18642C2.8918 17.7679 2.60066 17.7048 2.33295 17.5831C2.06525 17.4614 1.82731 17.2838 1.63546 17.0626C1.4436 16.8413 1.30237 16.5816 1.22143 16.3013C1.1405 16.021 1.12178 15.7267 1.16657 15.4385L2.58159 6.3396C2.65581 5.862 2.90043 5.42649 3.27114 5.11196C3.64185 4.79742 4.11414 4.62466 4.60246 4.62496H15.3995C15.8877 4.6249 16.3597 4.79778 16.7302 5.11229C17.1007 5.4268 17.3452 5.86217 17.4194 6.3396H17.4183Z" stroke="black" stroke-linejoin="round"/>
</svg>
