<svg width="20" height="20" viewBox="0 0 20 20" fill="none" xmlns="http://www.w3.org/2000/svg">
<path d="M16.9089 10.8218L10.0077 17.7143L3.10655 10.8218C2.65135 10.3751 2.2928 9.83824 2.05347 9.24495C1.81415 8.65166 1.69923 8.01483 1.71595 7.37456C1.73268 6.73429 1.88068 6.10444 2.15065 5.52468C2.42062 4.94492 2.8067 4.42782 3.28459 4.00592C3.76247 3.58402 4.32181 3.26648 4.92737 3.07328C5.53293 2.88008 6.1716 2.81541 6.80317 2.88335C7.43473 2.95129 8.0455 3.15036 8.59702 3.46803C9.14854 3.7857 9.62886 4.21509 10.0077 4.72915C10.3883 4.21882 10.8691 3.79319 11.4203 3.47889C11.9714 3.16459 12.581 2.96839 13.2107 2.90258C13.8405 2.83676 14.477 2.90274 15.0804 3.09639C15.6837 3.29004 16.2409 3.60719 16.7171 4.02799C17.1933 4.44879 17.5783 4.96418 17.8479 5.5419C18.1175 6.11962 18.2659 6.74725 18.2839 7.38549C18.3019 8.02373 18.1891 8.65884 17.9525 9.25109C17.7159 9.84333 17.3606 10.38 16.9089 10.8274" stroke="black" stroke-linecap="round" stroke-linejoin="round"/>
</svg>
